<svg width="30" height="30" viewBox="0 0 30 30" fill="none" xmlns="http://www.w3.org/2000/svg">
<path d="M5.9 24.1H1V10.1C1 8 2.4 5.55 4.5 3.8C6.6 2.05 10.8 1 10.8 1H19.2C19.2 1 23.4 2.05 25.5 3.8C27.6 5.55 29 8 29 10.1V24.1H24.1" stroke="#272628" stroke-width="1.47619" stroke-linecap="round" stroke-linejoin="round"/>
<path d="M24.1 10.1001V29.0001H5.90002V10.1001" stroke="#272628" stroke-width="1.47619" stroke-linecap="round" stroke-linejoin="round"/>
<path d="M19.2 1C19.2 2.11391 18.7575 3.1822 17.9699 3.96985C17.1822 4.7575 16.1139 5.2 15 5.2C13.8861 5.2 12.8178 4.7575 12.0302 3.96985C11.2425 3.1822 10.8 2.11391 10.8 1" stroke="#272628" stroke-width="1.47619" stroke-linecap="round" stroke-linejoin="round"/>
</svg>
