<svg width="31" height="31" viewBox="0 0 31 31" fill="none" xmlns="http://www.w3.org/2000/svg">
<path d="M21.9583 2.58337H9.04167C7.62084 2.58337 6.45834 3.74587 6.45834 5.16671V24.5417C6.45834 25.2269 6.73051 25.8839 7.21498 26.3684C7.69945 26.8529 8.35653 27.125 9.04167 27.125V28.4167H11.625V27.125H19.375V28.4167H21.9583V27.125C23.3921 27.125 24.5417 25.9755 24.5417 24.5417V5.16671C24.5417 4.48156 24.2695 3.82448 23.785 3.34001C23.3006 2.85555 22.6435 2.58337 21.9583 2.58337ZM21.9583 24.5417H9.04167V5.16671H21.9583V24.5417ZM12.9167 19.375H10.3333V12.9167H12.9167V19.375Z" fill="#272628"/>
</svg>
