<svg width="33" height="33" viewBox="0 0 33 33" fill="none" xmlns="http://www.w3.org/2000/svg">
<path d="M14.4375 2.75C15.3492 2.75 16.2235 3.11216 16.8682 3.75682C17.5128 4.40148 17.875 5.27582 17.875 6.1875V19.25H19.25V6.14625C19.25 4.895 18.7412 3.7125 17.875 2.81875C18.1088 2.75 18.3287 2.75 18.5625 2.75C19.4742 2.75 20.3485 3.11216 20.9932 3.75682C21.6378 4.40148 22 5.27582 22 6.1875V19.25H23.375V23.375C23.375 24.1313 22.7563 24.75 22 24.75H11C10.2437 24.75 9.625 24.1313 9.625 23.375V19.25H11V6.1875C11 5.27582 11.3622 4.40148 12.0068 3.75682C12.6515 3.11216 13.5258 2.75 14.4375 2.75V2.75ZM14.4375 5.5C14.0525 5.5 13.75 5.8025 13.75 6.1875V19.25H15.125V6.1875C15.125 5.8025 14.8225 5.5 14.4375 5.5ZM12.375 27.5H20.625V28.875C20.625 29.6313 20.0063 30.25 19.25 30.25H13.75C12.9937 30.25 12.375 29.6313 12.375 28.875V27.5Z" fill="#272628"/>
</svg>
