<svg width="53" height="10" viewBox="0 0 53 10" fill="none" xmlns="http://www.w3.org/2000/svg">
<path d="M26.2961 1L27.5568 3.55408L30.3761 3.96616L28.3361 5.95312L28.8175 8.76016L26.2961 7.43416L23.7746 8.76016L24.2561 5.95312L22.2161 3.96616L25.0353 3.55408L26.2961 1Z" fill="#FF9900" stroke="#FF9900" stroke-width="0.816" stroke-linecap="round" stroke-linejoin="round"/>
<path d="M15.6882 1L16.9489 3.55408L19.7682 3.96616L17.7282 5.95312L18.2096 8.76016L15.6882 7.43416L13.1667 8.76016L13.6482 5.95312L11.6082 3.96616L14.4274 3.55408L15.6882 1Z" fill="#FF9900" stroke="#FF9900" stroke-width="0.816" stroke-linecap="round" stroke-linejoin="round"/>
<path d="M5.08 1L6.34072 3.55408L9.16 3.96616L7.12 5.95312L7.60144 8.76016L5.08 7.43416L2.55856 8.76016L3.04 5.95312L1 3.96616L3.81928 3.55408L5.08 1Z" fill="#FF9900" stroke="#FF9900" stroke-width="0.816" stroke-linecap="round" stroke-linejoin="round"/>
<path d="M37.3122 1L38.5729 3.55408L41.3922 3.96616L39.3522 5.95312L39.8336 8.76016L37.3122 7.43416L34.7907 8.76016L35.2722 5.95312L33.2322 3.96616L36.0515 3.55408L37.3122 1Z" fill="#ECECEC" stroke="#ECECEC" stroke-width="0.816" stroke-linecap="round" stroke-linejoin="round"/>
<path d="M47.9201 1L49.1808 3.55408L52.0001 3.96616L49.9601 5.95312L50.4415 8.76016L47.9201 7.43416L45.3986 8.76016L45.8801 5.95312L43.8401 3.96616L46.6594 3.55408L47.9201 1Z" fill="#ECECEC" stroke="#ECECEC" stroke-width="0.816" stroke-linecap="round" stroke-linejoin="round"/>
</svg>
