<svg width="31" height="31" viewBox="0 0 31 31" fill="none" xmlns="http://www.w3.org/2000/svg">
<path d="M24.5417 11.625V9.04163C24.5417 6.91038 22.7979 5.16663 20.6667 5.16663H10.3333C8.20208 5.16663 6.45833 6.91038 6.45833 9.04163V11.625C4.32708 11.625 2.58333 13.3687 2.58333 15.5V21.9583C2.58333 24.0895 4.32708 25.8333 6.45833 25.8333V28.4166H9.04167V25.8333H21.9583V28.4166H24.5417V25.8333C26.6729 25.8333 28.4167 24.0895 28.4167 21.9583V15.5C28.4167 13.3687 26.6729 11.625 24.5417 11.625ZM9.04167 9.04163C9.04167 8.33121 9.62292 7.74996 10.3333 7.74996H20.6667C21.3771 7.74996 21.9583 8.33121 21.9583 9.04163V12.6325C21.1704 13.3429 20.6667 14.3633 20.6667 15.5V18.0833H10.3333V15.5C10.3333 14.3633 9.82958 13.3429 9.04167 12.6325V9.04163ZM25.8333 21.9583C25.8333 22.6687 25.2521 23.25 24.5417 23.25H6.45833C5.74792 23.25 5.16667 22.6687 5.16667 21.9583V15.5C5.16667 14.7895 5.74792 14.2083 6.45833 14.2083C7.16875 14.2083 7.75 14.7895 7.75 15.5V20.6666H23.25V15.5C23.25 14.7895 23.8313 14.2083 24.5417 14.2083C25.2521 14.2083 25.8333 14.7895 25.8333 15.5V21.9583Z" fill="#272628"/>
</svg>
