<svg width="60" height="60" viewBox="0 0 60 60" fill="none" xmlns="http://www.w3.org/2000/svg">
<circle cx="30" cy="30" r="30" fill="#E0FDFF"/>
<path d="M36.6111 16.7777H23.3889C22.8879 16.7777 22.4075 16.9767 22.0532 17.331C21.699 17.6852 21.5 18.1656 21.5 18.6666V41.3333C21.5 41.8342 21.699 42.3147 22.0532 42.6689C22.4075 43.0232 22.8879 43.2222 23.3889 43.2222H36.6111C37.1121 43.2222 37.5925 43.0232 37.9468 42.6689C38.301 42.3147 38.5 41.8342 38.5 41.3333V18.6666C38.5 18.1656 38.301 17.6852 37.9468 17.331C37.5925 16.9767 37.1121 16.7777 36.6111 16.7777V16.7777ZM23.3889 18.6666H36.6111V35.6666H23.3889V18.6666ZM23.3889 41.3333V37.5555H36.6111V41.3333H23.3889Z" fill="#3D3D3D"/>
<path d="M29.0556 38.5H30.9444V40.3889H29.0556V38.5Z" fill="#3D3D3D"/>
</svg>
