<svg width="60" height="60" viewBox="0 0 60 60" fill="none" xmlns="http://www.w3.org/2000/svg">
<circle cx="30" cy="30" r="30" fill="#FAE4FF"/>
<path d="M21.725 38.2749H17V24.775C17 22.75 18.35 20.3875 20.375 18.7C22.4 17.0125 26.45 16 26.45 16H34.5499C34.5499 16 38.5999 17.0125 40.6249 18.7C42.6499 20.3875 43.9999 22.75 43.9999 24.775V38.2749H39.2749" stroke="#3D3D3D" stroke-width="1.42346" stroke-linecap="round" stroke-linejoin="round"/>
<path d="M39.2749 24.7751V43H21.725V24.7751" stroke="#3D3D3D" stroke-width="1.42346" stroke-linecap="round" stroke-linejoin="round"/>
<path d="M34.5499 16C34.5499 17.0741 34.1232 18.1043 33.3637 18.8638C32.6042 19.6233 31.5741 20.05 30.5 20.05C29.4258 20.05 28.3957 19.6233 27.6362 18.8638C26.8767 18.1043 26.45 17.0741 26.45 16" stroke="#3D3D3D" stroke-width="1.42346" stroke-linecap="round" stroke-linejoin="round"/>
</svg>
