<svg width="32" height="32" viewBox="0 0 32 32" fill="none" xmlns="http://www.w3.org/2000/svg">
<path d="M2.66666 6.66667C2.66666 5.95942 2.94762 5.28115 3.44771 4.78105C3.94781 4.28095 4.62609 4 5.33333 4H26.6667C27.3739 4 28.0522 4.28095 28.5523 4.78105C29.0524 5.28115 29.3333 5.95942 29.3333 6.66667V21.3333C29.3333 22.0406 29.0524 22.7189 28.5523 23.2189C28.0522 23.719 27.3739 24 26.6667 24H17.3333V26.6667H21.3333C21.687 26.6667 22.0261 26.8071 22.2761 27.0572C22.5262 27.3072 22.6667 27.6464 22.6667 28C22.6667 28.3536 22.5262 28.6928 22.2761 28.9428C22.0261 29.1929 21.687 29.3333 21.3333 29.3333H10.6667C10.313 29.3333 9.9739 29.1929 9.72386 28.9428C9.47381 28.6928 9.33333 28.3536 9.33333 28C9.33333 27.6464 9.47381 27.3072 9.72386 27.0572C9.9739 26.8071 10.313 26.6667 10.6667 26.6667H14.6667V24H5.33333C4.62609 24 3.94781 23.719 3.44771 23.2189C2.94762 22.7189 2.66666 22.0406 2.66666 21.3333V6.66667ZM26.6667 21.3333V6.66667H5.33333V21.3333H26.6667Z" fill="#272628"/>
</svg>
